# xmcd CD database file
#
# Track frame offsets:
#	150
#	32540
#	63043
#	83222
#	99065
#	130277
#
# Disc length: 2317 seconds
#
# Revision: 0
# Processed by: cddbd v1.5.1PL2 Copyright (c) Steve Scherf et al.
# Submitted via: CDex 1.51
#
DISCID=3b090b06
DTITLE=Dave Brubeck - Jazz Impressions of Eurasia
DYEAR=1958
DGENRE=Jazz
TTITLE0=Nomad
TTITLE1=Brandenburg Gate
TTITLE2=The Golden Horn
TTITLE3=Thank You (Dziekuje)
TTITLE4=Marble Arch
TTITLE5=Calcutta Blues
EXTD=YEAR: 1958
EXTT0=
EXTT1=
EXTT2=
EXTT3=
EXTT4=
EXTT5=
PLAYORDER=
